<svg width="140" height="32" viewBox="0 0 140 32" fill="none" xmlns="http://www.w3.org/2000/svg">
<path d="M46.7659 8.032V20.5046H52.8885L52.503 23.3846H43.047V8.032H46.7659Z" fill="rgba(64, 73, 96)"/>
<path d="M64.2096 23.3846L63.3933 20.0837H58.8127L58.019 23.3846H54.164L58.9034 8.032H63.4159L68.1553 23.3846H64.2096ZM59.4476 17.4474H62.7583L61.103 10.6683L59.4476 17.4474Z" fill="rgba(64, 73, 96)"/>
<path d="M80.1871 8.032L79.8243 10.8234H75.9467V23.3846H72.2278V10.8234H68.1688V8.032H80.1871Z" fill="rgba(64, 73, 96)"/>
<path d="M88.4966 7.65538C90.734 7.65538 92.4725 8.35692 93.7121 9.76C94.9669 11.1631 95.5942 13.1422 95.5942 15.6972C95.5942 17.3662 95.307 18.8062 94.7326 20.0172C94.1732 21.2283 93.3569 22.1588 92.2835 22.8086C91.2253 23.4437 89.963 23.7612 88.4966 23.7612C87.0302 23.7612 85.7679 23.4437 84.7097 22.8086C83.6514 22.1735 82.8351 21.2578 82.2606 20.0615C81.7013 18.8505 81.4216 17.3957 81.4216 15.6972C81.4216 14.0431 81.7013 12.6105 82.2606 11.3994C82.8351 10.1883 83.6514 9.26523 84.7097 8.63015C85.7679 7.98031 87.0302 7.65538 88.4966 7.65538ZM88.4966 10.3138C87.4232 10.3138 86.622 10.7422 86.0929 11.5988C85.5789 12.4406 85.3219 13.8068 85.3219 15.6972C85.3219 17.5877 85.5865 18.9612 86.1156 19.8178C86.6447 20.6745 87.4384 21.1028 88.4966 21.1028C89.585 21.1028 90.3863 20.6818 90.9003 19.84C91.4294 18.9834 91.6939 17.6025 91.6939 15.6972C91.6939 13.792 91.4294 12.4185 90.9003 11.5766C90.3712 10.7348 89.5699 10.3138 88.4966 10.3138Z" fill="rgba(64, 73, 96)"/>
<path d="M102.804 8.032V23.3846H99.0855V8.032H102.804ZM111.83 8.032L106.818 14.9218L112.238 23.3846H107.929L102.918 15.1877L107.907 8.032H111.83Z" fill="rgba(64, 73, 96)"/>
<path d="M124.332 8.032L123.947 10.624H118.414V14.3015H123.244V16.8492H118.414V20.7705H124.332V23.3846H114.695V8.032H124.332Z" fill="rgba(64, 73, 96)"/>
<path d="M140 23.3846H135.261L130.725 11.488C130.877 12.6548 130.99 13.6886 131.066 14.5895C131.156 15.4757 131.202 16.5317 131.202 17.7575V23.3846H127.891V8.032H132.517L137.165 19.9508C136.833 17.9274 136.667 16.0222 136.667 14.2351V8.032H140V23.3846Z" fill="rgba(64, 73, 96)"/>
<path d="M21.5972 16.7229H18.8375L21.0974 10.4863L21.5972 16.7229Z" fill="rgba(64, 73, 96)"/>
<path fill-rule="evenodd" clip-rule="evenodd" d="M16.3773 32C25.4222 32 32.7545 24.8366 32.7545 16C32.7545 7.16344 25.4222 0 16.3773 0C7.33235 0 0 7.16344 0 16C0 24.8366 7.33235 32 16.3773 32ZM10.2158 19.4164L15.3223 8H11.3674L4.91354 22.4H16.7948L17.8596 19.4578H21.7928L22.0318 22.4H26.204L23.944 8H19.1634L14.0123 19.4164H10.2158Z" fill="rgba(64, 73, 96)"/>
</svg>
